<svg width="30" height="30" viewBox="0 0 30 30" fill="none" xmlns="http://www.w3.org/2000/svg">
<path d="M25.0378 19.4133C24.9508 19.5005 24.8474 19.5696 24.7336 19.6168C24.6197 19.664 24.4977 19.6882 24.3745 19.6882C24.2513 19.6882 24.1293 19.664 24.0155 19.6168C23.9017 19.5696 23.7983 19.5005 23.7113 19.4133L14.9995 10.7004L6.28783 19.4133C6.11191 19.5892 5.87332 19.688 5.62454 19.688C5.37577 19.688 5.13718 19.5892 4.96126 19.4133C4.78535 19.2374 4.68652 18.9988 4.68652 18.75C4.68652 18.5012 4.78535 18.2626 4.96126 18.0867L14.3363 8.71172C14.4233 8.62456 14.5267 8.55541 14.6405 8.50823C14.7543 8.46105 14.8763 8.43677 14.9995 8.43677C15.1227 8.43677 15.2447 8.46105 15.3586 8.50823C15.4724 8.55541 15.5758 8.62456 15.6628 8.71172L25.0378 18.0867C25.125 18.1738 25.1941 18.2772 25.2413 18.391C25.2885 18.5048 25.3128 18.6268 25.3128 18.75C25.3128 18.8732 25.2885 18.9952 25.2413 19.109C25.1941 19.2228 25.125 19.3262 25.0378 19.4133Z" fill="white"/>
</svg>
