<svg width="30" height="30" viewBox="0 0 30 30" fill="none" xmlns="http://www.w3.org/2000/svg">
<path d="M25.0378 10.5867C24.9508 10.4995 24.8474 10.4304 24.7336 10.3832C24.6197 10.336 24.4977 10.3118 24.3745 10.3118C24.2513 10.3118 24.1293 10.336 24.0155 10.3832C23.9017 10.4304 23.7983 10.4995 23.7113 10.5867L14.9995 19.2996L6.28783 10.5867C6.11191 10.4108 5.87332 10.312 5.62454 10.312C5.37577 10.312 5.13718 10.4108 4.96126 10.5867C4.78535 10.7626 4.68652 11.0012 4.68652 11.25C4.68652 11.4988 4.78535 11.7374 4.96126 11.9133L14.3363 21.2883C14.4233 21.3754 14.5267 21.4446 14.6405 21.4918C14.7543 21.5389 14.8763 21.5632 14.9995 21.5632C15.1227 21.5632 15.2447 21.5389 15.3586 21.4918C15.4724 21.4446 15.5758 21.3754 15.6628 21.2883L25.0378 11.9133C25.125 11.8262 25.1941 11.7228 25.2413 11.609C25.2885 11.4952 25.3128 11.3732 25.3128 11.25C25.3128 11.1268 25.2885 11.0048 25.2413 10.891C25.1941 10.7772 25.125 10.6738 25.0378 10.5867Z" fill="white"/>
</svg>
