<svg width="25" height="25" viewBox="0 0 25 25" fill="none" xmlns="http://www.w3.org/2000/svg">
<path d="M12.5 2.34375C10.4913 2.34375 8.52768 2.9394 6.85749 4.05539C5.18731 5.17137 3.88556 6.75756 3.11685 8.61337C2.34815 10.4692 2.14702 12.5113 2.5389 14.4814C2.93079 16.4515 3.89807 18.2612 5.31845 19.6816C6.73883 21.1019 8.5485 22.0692 10.5186 22.4611C12.4887 22.853 14.5308 22.6519 16.3866 21.8832C18.2424 21.1144 19.8286 19.8127 20.9446 18.1425C22.0606 16.4723 22.6563 14.5087 22.6563 12.5C22.6532 9.80735 21.5821 7.22587 19.6781 5.32187C17.7741 3.41788 15.1927 2.34685 12.5 2.34375ZM21.0938 12.5C21.0944 13.2925 20.985 14.0813 20.7686 14.8438H17.0078C17.2474 13.2904 17.2474 11.7096 17.0078 10.1562H20.7686C20.985 10.9187 21.0944 11.7075 21.0938 12.5ZM9.96094 16.4062H15.0391C14.5388 18.0455 13.6703 19.5487 12.5 20.8008C11.3302 19.5483 10.4617 18.0453 9.96094 16.4062ZM9.58008 14.8438C9.31186 13.2928 9.31186 11.7072 9.58008 10.1562H15.4277C15.696 11.7072 15.696 13.2928 15.4277 14.8438H9.58008ZM3.90625 12.5C3.90557 11.7075 4.01502 10.9187 4.23145 10.1562H7.99219C7.75261 11.7096 7.75261 13.2904 7.99219 14.8438H4.23145C4.01502 14.0813 3.90557 13.2925 3.90625 12.5ZM15.0391 8.59375H9.96094C10.4612 6.9545 11.3297 5.45135 12.5 4.19922C13.6699 5.45168 14.5383 6.95472 15.0391 8.59375ZM20.1494 8.59375H16.6709C16.2325 6.98526 15.4936 5.47429 14.4932 4.14063C15.7019 4.43099 16.8335 4.97927 17.8105 5.74791C18.7874 6.51654 19.5867 7.48734 20.1533 8.59375H20.1494ZM10.5068 4.14063C9.50645 5.47429 8.76753 6.98526 8.32911 8.59375H4.84668C5.41336 7.48734 6.21257 6.51654 7.18954 5.74791C8.16651 4.97927 9.29814 4.43099 10.5068 4.14063ZM4.84668 16.4062H8.32911C8.76753 18.0147 9.50645 19.5257 10.5068 20.8594C9.29814 20.569 8.16651 20.0207 7.18954 19.2521C6.21257 18.4835 5.41336 17.5127 4.84668 16.4062ZM14.4932 20.8594C15.4936 19.5257 16.2325 18.0147 16.6709 16.4062H20.1533C19.5867 17.5127 18.7874 18.4835 17.8105 19.2521C16.8335 20.0207 15.7019 20.569 14.4932 20.8594Z" fill="white"/>
</svg>
