<svg width="25" height="25" viewBox="0 0 25 25" fill="none" xmlns="http://www.w3.org/2000/svg">
<path d="M22.4278 21.3222L17.5382 16.4336C18.9554 14.7321 19.6621 12.5498 19.5113 10.3405C19.3604 8.13131 18.3637 6.06527 16.7284 4.57222C15.093 3.07917 12.9451 2.27405 10.7313 2.32437C8.51745 2.37468 6.40827 3.27654 4.84247 4.84234C3.27666 6.40815 2.3748 8.51733 2.32449 10.7311C2.27418 12.9449 3.07929 15.0929 4.57234 16.7282C6.06539 18.3636 8.13143 19.3603 10.3407 19.5111C12.5499 19.662 14.7322 18.9553 16.4337 17.5381L21.3224 22.4277C21.395 22.5003 21.4811 22.5579 21.576 22.5972C21.6708 22.6364 21.7725 22.6567 21.8751 22.6567C21.9778 22.6567 22.0794 22.6364 22.1742 22.5972C22.2691 22.5579 22.3553 22.5003 22.4278 22.4277C22.5004 22.3551 22.558 22.269 22.5973 22.1741C22.6366 22.0793 22.6568 21.9776 22.6568 21.875C22.6568 21.7723 22.6366 21.6707 22.5973 21.5758C22.558 21.481 22.5004 21.3948 22.4278 21.3222ZM3.90635 10.9375C3.90635 9.54683 4.31873 8.18741 5.09133 7.03113C5.86393 5.87484 6.96207 4.97363 8.24686 4.44145C9.53165 3.90927 10.9454 3.77003 12.3093 4.04133C13.6733 4.31263 14.9261 4.9823 15.9094 5.96563C16.8928 6.94897 17.5624 8.20182 17.8337 9.56575C18.1051 10.9297 17.9658 12.3434 17.4336 13.6282C16.9015 14.913 16.0002 16.0111 14.844 16.7838C13.6877 17.5564 12.3283 17.9687 10.9376 17.9687C9.07343 17.9667 7.28621 17.2252 5.96804 15.907C4.64987 14.5889 3.90842 12.8016 3.90635 10.9375Z" fill="white"/>
</svg>
