<svg width="40" height="40" viewBox="0 0 40 40" fill="none" xmlns="http://www.w3.org/2000/svg">
<mask id="mask0_4_1134" style="mask-type:luminance" maskUnits="userSpaceOnUse" x="0" y="0" width="40" height="40">
<path d="M40 0H0V40H40V0Z" fill="white"/>
</mask>
<g mask="url(#mask0_4_1134)">
<path d="M40 0H0V40H40V0Z" fill="#FFDD00"/>
</g>
<mask id="mask1_4_1134" style="mask-type:luminance" maskUnits="userSpaceOnUse" x="0" y="0" width="40" height="40">
<path d="M40 0H0V40H40V0Z" fill="white"/>
</mask>
<g mask="url(#mask1_4_1134)">
<path d="M40.9496 1.63403C22.9324 8.26212 2.0184 19.0638 -3.479 22.0698C8.55401 17.7872 27.8817 9.8485 40.9496 1.63403Z" fill="url(#paint0_linear_4_1134)"/>
<path d="M38.2231 7.05365C20.0017 13.0962 -2.7232 23.6834 -8.31592 26.5124C3.84645 22.6179 24.8966 14.8426 38.2231 7.05365Z" fill="url(#paint1_linear_4_1134)"/>
<path d="M35.4419 12.1907C17.0605 17.726 -4.46277 27.2579 -10.1304 29.9302C2.13412 26.3728 21.9043 19.6085 35.4419 12.1907Z" fill="url(#paint2_linear_4_1134)"/>
<path d="M32.702 17.6068C13.6398 22.6655 -8.99316 32.0885 -14.9263 34.7098C-2.14778 31.3498 17.9833 25.9302 32.702 17.6068Z" fill="url(#paint3_linear_4_1134)"/>
<path d="M33.4373 22.3932C10.1882 27.394 -18.2792 37.9132 -25.6079 40.8034C-10.1165 37.6613 15.7571 30.7438 33.4373 22.3932Z" fill="url(#paint4_linear_4_1134)"/>
<path d="M30.125 28.2826C6.7704 32.7728 -24.1989 43.52 -31.5923 46.2503C-16.0362 43.4451 12.2644 36.2451 30.125 28.2826Z" fill="url(#paint5_linear_4_1134)"/>
<path d="M46.4573 -4.88507C28.6273 2.22642 8.01288 13.5932 2.59717 16.7456C14.511 12.1362 33.6175 3.68004 46.4573 -4.88507Z" fill="url(#paint6_linear_4_1134)"/>
<path d="M49.9465 -11.4825C32.5114 -3.4485 12.5199 8.98044 7.27783 12.4119C18.933 7.18639 37.5697 -2.25701 49.9465 -11.4825Z" fill="url(#paint7_linear_4_1134)"/>
<path d="M51.6929 -16.1906C34.5199 -7.60508 14.9335 5.45024 9.80371 9.04854C21.2853 3.45535 39.6156 -6.57699 51.6929 -16.1906Z" fill="url(#paint8_linear_4_1134)"/>
<path d="M54.501 -21.8281C37.6174 -12.6944 18.4599 0.987255 13.4492 4.74555C24.747 -1.21189 42.7403 -11.8298 54.501 -21.8281Z" fill="url(#paint9_linear_4_1134)"/>
</g>
<path d="M38.6828 33.9029L37.8489 38.4102H35.4116L36.1094 34.2978C36.1094 34.2978 36.3001 33.2902 35.381 33.2629C35.381 33.2629 34.7002 33.2936 34.5538 34.1072L33.7062 38.4102H31.1396V38.417L32.4944 31.5234H35.0474L34.9181 32.1497C34.9181 32.1497 35.7929 31.377 36.8753 31.3191C36.8719 31.3225 39.2343 30.8527 38.6828 33.9029Z" fill="black"/>
<path d="M18.504 34.88L19.5694 38.4102H22.2994L21.1897 34.5429L23.8856 31.1591H20.9276L18.7661 33.5795L18.7933 33.5693L19.8621 28.6127H17.19L15.0762 38.4102H17.7449L18.504 34.897V34.88Z" fill="black"/>
<path d="M27.286 30.7948C23.7425 30.7948 22.8506 34.4272 22.8506 34.4272C21.918 38.7438 26.0606 38.6417 26.0606 38.6417C29.7403 38.9617 30.6866 35.6187 30.6866 35.6187C32.1843 30.5872 27.286 30.7948 27.286 30.7948ZM27.9634 33.6783C27.9634 33.9744 27.5788 35.7957 27.1669 36.2859C26.9865 36.5038 26.7992 36.5923 26.4282 36.6366C26.4282 36.6366 25.7985 36.7285 25.7713 35.6663C25.7644 35.4008 26.1933 33.7804 26.5678 33.2357C26.7482 33.0485 26.966 32.8306 27.2281 32.8442C27.2247 32.8408 27.96 32.6774 27.9634 33.6783Z" fill="black"/>
<path d="M4.17659 38.4238L5.22842 33.5966L7.24356 38.4102L9.88844 38.4238L12.0568 28.606H9.37445L8.29539 33.5966L6.34151 28.606H3.65919L1.5249 38.4238H4.17659Z" fill="black"/>
<path d="M15.3248 31.1796L13.7488 38.4102H11.0801L12.6527 31.1796H15.3248Z" fill="black"/>
<path d="M14.3476 30.7302C15.202 30.7302 15.893 30.1855 15.893 29.5149C15.893 28.8408 15.202 28.2961 14.3476 28.2961C13.4932 28.2961 12.7988 28.8408 12.7988 29.5149C12.7988 30.1821 13.4898 30.7302 14.3476 30.7302Z" fill="black"/>
<defs>
<linearGradient id="paint0_linear_4_1134" x1="-3.47904" y1="11.8524" x2="40.9494" y2="11.8524" gradientUnits="userSpaceOnUse">
<stop offset="0.005618" stop-color="#FFDD00"/>
<stop offset="0.0545" stop-color="#FFE248"/>
<stop offset="0.1224" stop-color="#FFE87F"/>
<stop offset="0.1909" stop-color="#FFEEA5"/>
<stop offset="0.2585" stop-color="#FFF3C4"/>
<stop offset="0.3249" stop-color="#FFF7DC"/>
<stop offset="0.3899" stop-color="#FFFBED"/>
<stop offset="0.4528" stop-color="#FFFEF9"/>
<stop offset="0.5112" stop-color="white"/>
<stop offset="0.5705" stop-color="#FFFEF9"/>
<stop offset="0.6316" stop-color="#FFFBEE"/>
<stop offset="0.6935" stop-color="#FFF8DD"/>
<stop offset="0.7561" stop-color="#FFF3C7"/>
<stop offset="0.8192" stop-color="#FFEEA9"/>
<stop offset="0.8826" stop-color="#FFE984"/>
<stop offset="0.9452" stop-color="#FFE352"/>
<stop offset="1" stop-color="#FFDD00"/>
</linearGradient>
<linearGradient id="paint1_linear_4_1134" x1="-8.31694" y1="16.7833" x2="38.2218" y2="16.7833" gradientUnits="userSpaceOnUse">
<stop offset="0.005618" stop-color="#FFDD00"/>
<stop offset="0.0545" stop-color="#FFE248"/>
<stop offset="0.1224" stop-color="#FFE87F"/>
<stop offset="0.1909" stop-color="#FFEEA5"/>
<stop offset="0.2585" stop-color="#FFF3C4"/>
<stop offset="0.3249" stop-color="#FFF7DC"/>
<stop offset="0.3899" stop-color="#FFFBED"/>
<stop offset="0.4528" stop-color="#FFFEF9"/>
<stop offset="0.5112" stop-color="white"/>
<stop offset="0.5705" stop-color="#FFFEF9"/>
<stop offset="0.6316" stop-color="#FFFBEE"/>
<stop offset="0.6935" stop-color="#FFF8DD"/>
<stop offset="0.7561" stop-color="#FFF3C7"/>
<stop offset="0.8192" stop-color="#FFEEA9"/>
<stop offset="0.8826" stop-color="#FFE984"/>
<stop offset="0.9452" stop-color="#FFE352"/>
<stop offset="1" stop-color="#FFDD00"/>
</linearGradient>
<linearGradient id="paint2_linear_4_1134" x1="-10.1321" y1="21.0606" x2="35.4407" y2="21.0606" gradientUnits="userSpaceOnUse">
<stop offset="0.005618" stop-color="#FFDD00"/>
<stop offset="0.0545" stop-color="#FFE248"/>
<stop offset="0.1224" stop-color="#FFE87F"/>
<stop offset="0.1909" stop-color="#FFEEA5"/>
<stop offset="0.2585" stop-color="#FFF3C4"/>
<stop offset="0.3249" stop-color="#FFF7DC"/>
<stop offset="0.3899" stop-color="#FFFBED"/>
<stop offset="0.4528" stop-color="#FFFEF9"/>
<stop offset="0.5112" stop-color="white"/>
<stop offset="0.5705" stop-color="#FFFEF9"/>
<stop offset="0.6316" stop-color="#FFFBEE"/>
<stop offset="0.6935" stop-color="#FFF8DD"/>
<stop offset="0.7561" stop-color="#FFF3C7"/>
<stop offset="0.8192" stop-color="#FFEEA9"/>
<stop offset="0.8826" stop-color="#FFE984"/>
<stop offset="0.9452" stop-color="#FFE352"/>
<stop offset="1" stop-color="#FFDD00"/>
</linearGradient>
<linearGradient id="paint3_linear_4_1134" x1="-14.9293" y1="26.1596" x2="32.7007" y2="26.1596" gradientUnits="userSpaceOnUse">
<stop offset="0.005618" stop-color="#FFDD00"/>
<stop offset="0.0545" stop-color="#FFE248"/>
<stop offset="0.1224" stop-color="#FFE87F"/>
<stop offset="0.1909" stop-color="#FFEEA5"/>
<stop offset="0.2585" stop-color="#FFF3C4"/>
<stop offset="0.3249" stop-color="#FFF7DC"/>
<stop offset="0.3899" stop-color="#FFFBED"/>
<stop offset="0.4528" stop-color="#FFFEF9"/>
<stop offset="0.5112" stop-color="white"/>
<stop offset="0.5705" stop-color="#FFFEF9"/>
<stop offset="0.6316" stop-color="#FFFBEE"/>
<stop offset="0.6935" stop-color="#FFF8DD"/>
<stop offset="0.7561" stop-color="#FFF3C7"/>
<stop offset="0.8192" stop-color="#FFEEA9"/>
<stop offset="0.8826" stop-color="#FFE984"/>
<stop offset="0.9452" stop-color="#FFE352"/>
<stop offset="1" stop-color="#FFDD00"/>
</linearGradient>
<linearGradient id="paint4_linear_4_1134" x1="-25.6099" y1="31.5983" x2="33.437" y2="31.5983" gradientUnits="userSpaceOnUse">
<stop offset="0.005618" stop-color="#FFDD00"/>
<stop offset="0.0545" stop-color="#FFE248"/>
<stop offset="0.1224" stop-color="#FFE87F"/>
<stop offset="0.1909" stop-color="#FFEEA5"/>
<stop offset="0.2585" stop-color="#FFF3C4"/>
<stop offset="0.3249" stop-color="#FFF7DC"/>
<stop offset="0.3899" stop-color="#FFFBED"/>
<stop offset="0.4528" stop-color="#FFFEF9"/>
<stop offset="0.5112" stop-color="white"/>
<stop offset="0.5705" stop-color="#FFFEF9"/>
<stop offset="0.6316" stop-color="#FFFBEE"/>
<stop offset="0.6935" stop-color="#FFF8DD"/>
<stop offset="0.7561" stop-color="#FFF3C7"/>
<stop offset="0.8192" stop-color="#FFEEA9"/>
<stop offset="0.8826" stop-color="#FFE984"/>
<stop offset="0.9452" stop-color="#FFE352"/>
<stop offset="1" stop-color="#FFDD00"/>
</linearGradient>
<linearGradient id="paint5_linear_4_1134" x1="-31.5923" y1="37.2664" x2="30.1235" y2="37.2664" gradientUnits="userSpaceOnUse">
<stop offset="0.005618" stop-color="#FFDD00"/>
<stop offset="0.0545" stop-color="#FFE248"/>
<stop offset="0.1224" stop-color="#FFE87F"/>
<stop offset="0.1909" stop-color="#FFEEA5"/>
<stop offset="0.2585" stop-color="#FFF3C4"/>
<stop offset="0.3249" stop-color="#FFF7DC"/>
<stop offset="0.3899" stop-color="#FFFBED"/>
<stop offset="0.4528" stop-color="#FFFEF9"/>
<stop offset="0.5112" stop-color="white"/>
<stop offset="0.6694" stop-color="#FFFEFC"/>
<stop offset="0.7363" stop-color="#FFFDF4"/>
<stop offset="0.786" stop-color="#FFFAEA"/>
<stop offset="0.8272" stop-color="#FFF7DB"/>
<stop offset="0.8631" stop-color="#FFF4C9"/>
<stop offset="0.8953" stop-color="#FFF0B3"/>
<stop offset="0.9248" stop-color="#FFEC98"/>
<stop offset="0.9522" stop-color="#FFE778"/>
<stop offset="0.9768" stop-color="#FFE24C"/>
<stop offset="1" stop-color="#FFDD00"/>
</linearGradient>
<linearGradient id="paint6_linear_4_1134" x1="2.59965" y1="5.92926" x2="46.4583" y2="5.92926" gradientUnits="userSpaceOnUse">
<stop offset="0.005618" stop-color="#FFDD00"/>
<stop offset="0.0545" stop-color="#FFE248"/>
<stop offset="0.1224" stop-color="#FFE87F"/>
<stop offset="0.1909" stop-color="#FFEEA5"/>
<stop offset="0.2585" stop-color="#FFF3C4"/>
<stop offset="0.3249" stop-color="#FFF7DC"/>
<stop offset="0.3899" stop-color="#FFFBED"/>
<stop offset="0.4528" stop-color="#FFFEF9"/>
<stop offset="0.5112" stop-color="white"/>
<stop offset="0.5705" stop-color="#FFFEF9"/>
<stop offset="0.6316" stop-color="#FFFBEE"/>
<stop offset="0.6935" stop-color="#FFF8DD"/>
<stop offset="0.7561" stop-color="#FFF3C7"/>
<stop offset="0.8192" stop-color="#FFEEA9"/>
<stop offset="0.8826" stop-color="#FFE984"/>
<stop offset="0.9452" stop-color="#FFE352"/>
<stop offset="1" stop-color="#FFDD00"/>
</linearGradient>
<linearGradient id="paint7_linear_4_1134" x1="7.27732" y1="0.464793" x2="49.9455" y2="0.464793" gradientUnits="userSpaceOnUse">
<stop offset="0.005618" stop-color="#FFDD00"/>
<stop offset="0.0545" stop-color="#FFE248"/>
<stop offset="0.1224" stop-color="#FFE87F"/>
<stop offset="0.1909" stop-color="#FFEEA5"/>
<stop offset="0.2585" stop-color="#FFF3C4"/>
<stop offset="0.3249" stop-color="#FFF7DC"/>
<stop offset="0.3899" stop-color="#FFFBED"/>
<stop offset="0.4528" stop-color="#FFFEF9"/>
<stop offset="0.5112" stop-color="white"/>
<stop offset="0.5705" stop-color="#FFFEF9"/>
<stop offset="0.6316" stop-color="#FFFBEE"/>
<stop offset="0.6935" stop-color="#FFF8DD"/>
<stop offset="0.7561" stop-color="#FFF3C7"/>
<stop offset="0.8192" stop-color="#FFEEA9"/>
<stop offset="0.8826" stop-color="#FFE984"/>
<stop offset="0.9452" stop-color="#FFE352"/>
<stop offset="1" stop-color="#FFDD00"/>
</linearGradient>
<linearGradient id="paint8_linear_4_1134" x1="9.80385" y1="-3.57128" x2="51.6922" y2="-3.57128" gradientUnits="userSpaceOnUse">
<stop offset="0.005618" stop-color="#FFDD00"/>
<stop offset="0.0545" stop-color="#FFE248"/>
<stop offset="0.1224" stop-color="#FFE87F"/>
<stop offset="0.1909" stop-color="#FFEEA5"/>
<stop offset="0.2585" stop-color="#FFF3C4"/>
<stop offset="0.3249" stop-color="#FFF7DC"/>
<stop offset="0.3899" stop-color="#FFFBED"/>
<stop offset="0.4528" stop-color="#FFFEF9"/>
<stop offset="0.5112" stop-color="white"/>
<stop offset="0.5705" stop-color="#FFFEF9"/>
<stop offset="0.6316" stop-color="#FFFBEE"/>
<stop offset="0.6935" stop-color="#FFF8DD"/>
<stop offset="0.7561" stop-color="#FFF3C7"/>
<stop offset="0.8192" stop-color="#FFEEA9"/>
<stop offset="0.8826" stop-color="#FFE984"/>
<stop offset="0.9452" stop-color="#FFE352"/>
<stop offset="1" stop-color="#FFDD00"/>
</linearGradient>
<linearGradient id="paint9_linear_4_1134" x1="13.45" y1="-8.54051" x2="54.5023" y2="-8.54051" gradientUnits="userSpaceOnUse">
<stop offset="0.005618" stop-color="#FFDD00"/>
<stop offset="0.0545" stop-color="#FFE248"/>
<stop offset="0.1224" stop-color="#FFE87F"/>
<stop offset="0.1909" stop-color="#FFEEA5"/>
<stop offset="0.2585" stop-color="#FFF3C4"/>
<stop offset="0.3249" stop-color="#FFF7DC"/>
<stop offset="0.3899" stop-color="#FFFBED"/>
<stop offset="0.4528" stop-color="#FFFEF9"/>
<stop offset="0.5112" stop-color="white"/>
<stop offset="0.5705" stop-color="#FFFEF9"/>
<stop offset="0.6316" stop-color="#FFFBEE"/>
<stop offset="0.6935" stop-color="#FFF8DD"/>
<stop offset="0.7561" stop-color="#FFF3C7"/>
<stop offset="0.8192" stop-color="#FFEEA9"/>
<stop offset="0.8826" stop-color="#FFE984"/>
<stop offset="0.9452" stop-color="#FFE352"/>
<stop offset="1" stop-color="#FFDD00"/>
</linearGradient>
</defs>
</svg>
